HIERARCHY
ROOT Hips
{
 OFFSET 0.000000 0.000000 0.000000
 CHANNELS 6 Xposition Yposition Zposition Yrotation Xrotation Zrotation
 JOINT Chest
 {
  OFFSET 0.000000 13.173100 -0.061900
  CHANNELS 3 Yrotation Xrotation Zrotation
  JOINT Chest2
  {
   OFFSET 0.000000 8.040800 0.126200
   CHANNELS 3 Yrotation Xrotation Zrotation
   JOINT Chest3
   {
    OFFSET 0.000000 7.994400 0.000000
    CHANNELS 3 Yrotation Xrotation Zrotation
    JOINT Chest4
    {
     OFFSET 0.000000 7.986200 0.000000
     CHANNELS 3 Yrotation Xrotation Zrotation
     JOINT Neck
     {
      OFFSET 0.000000 12.259400 0.000000
      CHANNELS 3 Yrotation Xrotation Zrotation
      JOINT Head
      {
       OFFSET 0.000000 7.518700 0.267100
       CHANNELS 3 Yrotation Xrotation Zrotation
       End Site
       {
        OFFSET 0.000000 13.617700 0.141000
       }
      }
     }
     JOINT RightCollar
     {
      OFFSET -2.983800 8.314300 0.000000
      CHANNELS 3 Yrotation Xrotation Zrotation
      JOINT RightShoulder
      {
       OFFSET -16.133400 0.000000 0.000000
       CHANNELS 3 Yrotation Xrotation Zrotation
       JOINT RightElbow
       {
        OFFSET 0.000000 -29.822100 0.000000
        CHANNELS 3 Yrotation Xrotation Zrotation
        JOINT RightWrist
        {
         OFFSET 0.000000 -24.437700 0.010900
         CHANNELS 3 Yrotation Xrotation Zrotation
         End Site
         {
          OFFSET 0.000000 -18.312300 0.000000
         }
        }
       }
      }
     }
     JOINT LeftCollar
     {
      OFFSET 2.983800 8.314300 0.000000
      CHANNELS 3 Yrotation Xrotation Zrotation
      JOINT LeftShoulder
      {
       OFFSET 16.133400 0.000000 0.000000
       CHANNELS 3 Yrotation Xrotation Zrotation
       JOINT LeftElbow
       {
        OFFSET 0.000000 -29.822100 0.000000
        CHANNELS 3 Yrotation Xrotation Zrotation
        JOINT LeftWrist
        {
         OFFSET 0.000000 -24.437700 0.010900
         CHANNELS 3 Yrotation Xrotation Zrotation
         End Site
         {
          OFFSET 0.000000 -18.312300 0.000000
         }
        }
       }
      }
     }
    }
   }
  }
 }
 JOINT RightHip
 {
  OFFSET -11.206700 0.306200 0.030900
  CHANNELS 3 Yrotation Xrotation Zrotation
  JOINT RightKnee
  {
   OFFSET 0.000000 -57.334900 0.009400
   CHANNELS 3 Yrotation Xrotation Zrotation
   JOINT RightAnkle
   {
    OFFSET 0.000000 -43.376200 0.036600
    CHANNELS 3 Yrotation Xrotation Zrotation
    JOINT RightToe
    {
     OFFSET 0.000000 -10.035500 18.363100
     CHANNELS 3 Yrotation Xrotation Zrotation
     End Site
     {
      OFFSET 0.000000 -1.618500 7.239000
     }
    }
   }
  }
 }
 JOINT LeftHip
 {
  OFFSET 11.206700 0.306200 0.030900
  CHANNELS 3 Yrotation Xrotation Zrotation
  JOINT LeftKnee
  {
   OFFSET 0.000000 -57.334900 0.009400
   CHANNELS 3 Yrotation Xrotation Zrotation
   JOINT LeftAnkle
   {
    OFFSET 0.000000 -43.376200 0.036600
    CHANNELS 3 Yrotation Xrotation Zrotation
    JOINT LeftToe
    {
     OFFSET 0.000000 -10.035500 18.363100
     CHANNELS 3 Yrotation Xrotation Zrotation
     End Site
     {
      OFFSET 0.000000 -1.618500 7.239000
     }
    }
   }
  }
 }
}
MOTION
Frames: 15
Frame Time: 0.008333
0.000000 110.232800 0.000000 0.000000 -5.767877 0.000000 0.000000 11.653817 0.000000 0.000000 -5.885947 0.000000 0.000000 -0.000000 0.000000 0.000000 -0.000000 0.000000 0.000000 12.528835 0.000000 0.000000 0.711642 0.000000 0.000000 -0.000000 0.000000 0.000000 0.000000 -90.000000 0.000000 -2.309062 0.000000 0.000000 2.309062 0.000000 0.000000 -0.000000 0.000000 0.000000 -0.000000 90.000000 0.000000 -2.309062 0.000000 0.000000 2.309062 0.000000 0.000000 8.520406 0.000000 0.000000 1.905762 0.000000 -0.000000 -4.658285 0.000000 0.000000 -0.000000 0.000000 0.000000 8.520406 0.000000 0.000000 1.905762 0.000000 -0.000000 -4.658285 0.000000 0.000000 -0.000000 0.000000
-94.240238 64.423013 93.678467 173.139667 -38.154529 -2.739750 2.304391 21.448583 1.803164 0.249995 2.925863 0.336624 0.449904 4.774324 0.558803 1.991825 18.300499 2.411822 1.565252 18.852743 -0.389757 2.990690 -0.760067 -1.208768 -4.861676 0.665988 -3.249466 -3.562989 -4.422368 0.957604 -152.731418 -72.393024 168.284283 0.639124 -3.037889 5.774980 -6.965713 0.577509 -1.257351 12.203854 -24.713453 2.015455 125.440068 -42.041327 -159.803728 24.772829 -23.084039 -9.112757 -4.336971 -42.828214 3.514199 -144.614472 86.208306 -140.430399 -1.893323 -10.654258 -2.159834 0.277437 -0.527347 0.137451 -1.441608 -39.534924 4.776970 73.066724 83.841901 62.777080 -5.414347 -14.365243 9.173521 0.336153 1.174989 0.152926
-94.237961 64.416430 93.677393 173.136565 -38.167771 -2.717157 2.349710 21.475563 1.804839 0.256220 2.932482 0.338258 0.459997 4.784485 0.561527 2.030519 18.314214 2.424276 1.588790 19.025392 -0.305933 3.004216 -0.441268 -1.058427 -4.943970 0.682099 -3.238740 -3.534405 -4.416131 0.957137 -152.487441 -72.368169 168.023709 0.631130 -3.015763 5.800019 -6.991651 0.558441 -1.286605 11.915887 -25.113281 1.960798 125.068225 -42.148736 -159.619160 24.901312 -23.191382 -8.952647 -4.339347 -42.826602 3.484335 -145.041405 86.205983 -140.842332 -1.902049 -10.658569 -2.195604 0.287810 -0.532332 0.144476 -1.445127 -39.520158 4.755704 73.091934 83.834883 62.791313 -5.407081 -14.374374 9.178979 0.326230 1.187453 0.148723
-94.234137 64.408069 93.677608 173.132995 -38.179601 -2.695442 2.410830 21.507511 1.820503 0.276417 2.945779 0.342033 0.458996 4.790829 0.564199 2.076196 18.330119 2.440568 1.604902 19.172362 -0.229217 3.007187 -0.170086 -0.919527 -4.998903 0.736972 -3.245881 -3.559931 -4.447999 0.975093 -152.420262 -72.311678 167.927595 0.562155 -2.959635 5.857330 -7.014270 0.541173 -1.299223 11.503719 -25.514401 1.884547 124.569456 -42.423585 -159.143732 24.994626 -23.225129 -8.802868 -4.326060 -42.826952 3.459637 -145.242963 86.195438 -141.036175 -1.904389 -10.668724 -2.210931 0.288908 -0.528919 0.149000 -1.464560 -39.508499 4.736508 73.124955 83.825334 62.814100 -5.389219 -14.383856 9.181551 0.316197 1.200935 0.134638
-94.229751 64.398364 93.679257 173.143812 -38.188703 -2.680796 2.469717 21.539187 1.844331 0.284177 2.955167 0.344645 0.424372 4.780345 0.555913 2.174317 18.374437 2.469404 1.618629 19.307505 -0.156854 3.007524 0.079168 -0.788228 -5.053951 0.754026 -3.250734 -3.596168 -4.438932 0.984482 -152.023993 -72.265044 167.535873 0.581094 -2.953616 5.916616 -7.034717 0.528596 -1.294063 10.981066 -25.897684 1.810127 124.063715 -42.831435 -158.481158 25.047320 -23.212838 -8.677009 -4.316916 -42.829407 3.433111 -145.393714 86.181136 -141.182657 -1.899346 -10.681950 -2.220495 0.285814 -0.522718 0.153171 -1.481700 -39.502416 4.712038 73.080631 83.830141 62.777212 -5.376943 -14.390918 9.158995 0.326248 1.216387 0.142150
-94.223166 64.388180 93.682525 173.147181 -38.196635 -2.668475 2.500815 21.558235 1.854218 0.325945 2.977624 0.359820 0.460113 4.809760 0.566498 2.193233 18.386511 2.484465 1.634994 19.437895 -0.088904 3.014396 0.319829 -0.666069 -5.098261 0.750524 -3.255583 -3.632163 -4.405735 0.987166 -151.652497 -72.206529 167.172067 0.597821 -2.959973 5.978753 -7.055500 0.519735 -1.274784 10.425813 -26.235983 1.746963 123.661291 -43.320336 -157.762441 25.020181 -23.187112 -8.553013 -4.317749 -42.833844 3.419334 -145.643393 86.176829 -141.423717 -1.907832 -10.690319 -2.239543 0.289722 -0.518703 0.156383 -1.490362 -39.496472 4.701599 73.079532 83.830696 62.774461 -5.376223 -14.402904 9.152813 0.328481 1.233094 0.145829
-94.217886 64.380457 93.683942 173.160881 -38.219048 -2.654680 2.521486 21.591341 1.857062 0.361645 3.004813 0.377031 0.493642 4.841632 0.578130 2.205597 18.402008 2.496457 1.656023 19.561325 -0.026099 3.031779 0.547898 -0.554924 -5.115901 0.740055 -3.264348 -3.672026 -4.366389 0.991416 -151.450979 -72.138154 166.965905 0.579456 -2.967981 6.038747 -7.083445 0.512898 -1.246634 9.918247 -26.501998 1.696036 123.469134 -43.843655 -157.137232 24.911116 -23.147652 -8.441564 -4.320297 -42.821745 3.391537 -145.936470 86.169128 -141.706965 -1.916945 -10.700716 -2.261108 0.290383 -0.517783 0.158826 -1.489558 -39.474742 4.676695 73.060593 83.829626 62.754751 -5.376782 -14.411397 9.152179 0.328279 1.245419 0.148847
-94.217453 64.374898 93.684167 173.182714 -38.249416 -2.625438 2.559245 21.646375 1.864275 0.362148 3.024433 0.381216 0.502213 4.861970 0.582257 2.235902 18.432417 2.510744 1.680002 19.668648 0.030458 3.056748 0.746157 -0.456522 -5.114127 0.720812 -3.273560 -3.703336 -4.327593 0.998109 -151.315197 -72.078956 166.821302 0.562351 -2.994153 6.073964 -7.127830 0.508978 -1.212579 9.483821 -26.676028 1.663881 123.554236 -44.362959 -156.720330 24.751397 -23.056527 -8.406605 -4.305598 -42.804282 3.334193 -146.169456 86.154069 -141.941925 -1.910974 -10.710569 -2.264886 0.284186 -0.520392 0.156137 -1.476200 -39.442847 4.622771 72.995856 83.822963 62.687951 -5.382737 -14.410027 9.150593 0.332926 1.251851 0.154658
-94.216736 64.368477 93.688696 173.205891 -38.261751 -2.603994 2.591075 21.690729 1.877756 0.360696 3.041702 0.381146 0.508934 4.883352 0.585198 2.258169 18.465332 2.519369 1.707463 19.749664 0.078710 3.091041 0.895763 -0.375126 -5.102530 0.695315 -3.275225 -3.713399 -4.302092 1.001757 -151.230026 -72.037920 166.720919 0.550337 -3.031178 6.082675 -7.188714 0.511021 -1.171362 9.138457 -26.754360 1.650744 123.892535 -44.838149 -156.552549 24.554334 -22.878717 -8.508929 -4.295223 -42.801806 3.282972 -146.418159 86.148690 -142.182303 -1.912407 -10.724243 -2.279028 0.282851 -0.515407 0.157241 -1.474318 -39.429814 4.584535 72.898800 83.816433 62.586103 -5.395160 -14.405920 9.145607 0.345054 1.260404 0.164339
-94.215303 64.362763 93.696008 173.224537 -38.264645 -2.590000 2.629293 21.728259 1.902162 0.345156 3.059799 0.372403 0.513695 4.905850 0.586395 2.271790 18.500990 2.520145 1.741817 19.799993 0.117732 3.141244 0.988830 -0.313307 -5.084482 0.667509 -3.264047 -3.699743 -4.301855 0.998092 -151.173110 -72.021022 166.643373 0.544193 -3.064008 6.079391 -7.259530 0.521404 -1.119828 8.917557 -26.746996 1.648801 124.396353 -45.231909 -156.619360 24.331757 -22.625185 -8.760061 -4.292688 -42.805647 3.248679 -146.659706 86.153662 -142.419899 -1.915640 -10.735021 -2.287542 0.275488 -0.506049 0.155307 -1.472756 -39.426104 4.558727 72.805306 83.804898 62.487160 -5.407321 -14.401831 9.145298 0.353154 1.268782 0.171190
-94.214202 64.358406 93.705122 173.237186 -38.262133 -2.579294 2.667599 21.784196 1.926420 0.319558 3.056142 0.355655 0.516559 4.929052 0.585984 2.277294 18.538733 2.513718 1.784611 19.822506 0.148429 3.209716 1.030605 -0.269667 -5.063340 0.641474 -3.239293 -3.664405 -4.333642 0.986608 -151.133235 -72.033807 166.584988 0.547338 -3.079273 6.067025 -7.335549 0.541118 -1.058528 8.827629 -26.674635 1.664782 124.976120 -45.524691 -156.865447 24.116639 -22.349125 -9.118564 -4.287217 -42.814353 3.225009 -146.787006 86.158789 -142.545601 -1.917392 -10.739550 -2.288872 0.266892 -0.497986 0.152028 -1.464643 -39.427906 4.536459 72.693785 83.794007 62.377485 -5.417898 -14.396873 9.144903 0.361982 1.277159 0.175168
-94.218662 64.354473 93.715859 173.272730 -38.248996 -2.568217 2.639898 21.793865 1.899976 0.313661 3.090677 0.343771 0.518264 4.952849 0.584328 2.277450 18.578015 2.501807 1.834795 19.823607 0.172553 3.293876 1.033009 -0.240748 -5.045566 0.621339 -3.200558 -3.624326 -4.401945 0.971807 -151.097121 -72.084353 166.557583 0.565777 -3.071620 6.040243 -7.409369 0.568000 -0.993598 8.820072 -26.562397 1.718716 125.570915 -45.714968 -157.220386 23.943969 -22.105051 -9.514564 -4.283815 -42.835080 3.180074 -146.966285 86.164537 -142.724486 -1.929121 -10.739738 -2.287289 0.267190 -0.499663 0.149394 -1.442923 -39.439760 4.486461 72.557667 83.761463 62.246136 -5.445384 -14.381537 9.139202 0.359237 1.286381 0.191941
-94.216852 64.358524 93.720248 173.271730 -38.279226 -2.567033 2.649774 21.863680 1.895568 0.297847 3.103301 0.331602 0.519256 4.977088 0.581419 2.274212 18.618505 2.484843 1.890383 19.809815 0.191999 3.389579 1.008032 -0.222458 -5.033439 0.610891 -3.149558 -3.596117 -4.500326 0.961443 -151.071872 -72.170316 166.580810 0.599492 -3.041160 6.011094 -7.472900 0.599569 -0.933262 8.827975 -26.435484 1.823147 126.125866 -45.814500 -157.610697 23.820922 -21.918138 -9.880153 -4.283023 -42.804081 3.183648 -146.988901 86.176000 -142.752314 -1.938143 -10.733087 -2.284115 0.266231 -0.501837 0.146594 -1.431753 -39.406980 4.483808 72.484423 83.756183 62.174618 -5.438056 -14.369560 9.134465 0.355651 1.275498 0.199102
-94.215552 64.362662 93.726075 173.264047 -38.301228 -2.568413 2.648077 21.922733 1.880050 0.290208 3.112969 0.320650 0.519759 5.001010 0.577301 2.268826 18.658812 2.463364 1.949043 19.787216 0.209851 3.491547 0.966673 -0.208221 -5.029206 0.612343 -3.090571 -3.497916 -4.607235 0.933966 -151.116871 -72.262767 166.616749 0.642025 -2.985169 6.003400 -7.525714 0.635955 -0.878862 8.809044 -26.313090 1.973611 126.573099 -45.846601 -157.955486 23.731946 -21.770937 -10.193943 -4.281941 -42.780229 3.194889 -146.936685 86.188708 -142.704183 -1.938495 -10.726031 -2.286008 0.260462 -0.500275 0.148355 -1.419213 -39.383041 4.489717 72.408414 83.753243 62.100705 -5.431521 -14.357031 9.131545 0.355769 1.261886 0.201887
-94.214417 64.367713 93.731328 173.262856 -38.323205 -2.579853 2.631573 21.976900 1.857276 0.291712 3.124103 0.311428 0.533439 4.990959 0.594470 2.244990 18.731870 2.420749 2.007493 19.760575 0.229785 3.592517 0.917717 -0.190239 -5.034374 0.618741 -3.028799 -3.345130 -4.744396 0.874214 -151.129161 -72.374372 166.560937 0.687719 -2.904540 6.027713 -7.568818 0.669409 -0.829340 8.751494 -26.201459 2.153852 126.861346 -45.834037 -158.198838 23.657064 -21.628505 -10.468919 -4.291299 -42.754205 3.214146 -146.806867 86.199326 -142.576682 -1.939622 -10.717306 -2.287724 0.259574 -0.499827 0.150074 -1.408776 -39.361061 4.507426 72.356905 83.752842 62.049322 -5.441046 -14.336697 9.133481 0.354116 1.246030 0.210505
